<?xml version="1.0" standalone="no"?>
<!DOCTYPE svg PUBLIC "-//W3C//DTD SVG 20010904//EN"
 "http://www.w3.org/TR/2001/REC-SVG-20010904/DTD/svg10.dtd">
<svg version="1.0" xmlns="http://www.w3.org/2000/svg"
 width="512.000000pt" height="512.000000pt" viewBox="0 0 512.000000 512.000000"
 preserveAspectRatio="xMidYMid meet">
<metadata>
Created by potrace 1.14, written by Peter Selinger 2001-2017
</metadata>
<g transform="translate(0.000000,512.000000) scale(0.100000,-0.100000)"
fill="#000000" stroke="none">
<path d="M2824 4525 c-9 -13 -22 -44 -28 -67 -11 -34 -19 -44 -43 -50 -60 -16
-126 -70 -155 -128 -74 -148 -52 -366 42 -412 159 -77 649 -25 743 80 53 58
-12 230 -134 354 -70 71 -116 97 -215 119 -52 12 -65 20 -113 71 -29 32 -59
58 -67 58 -7 0 -21 -11 -30 -25z m357 -223 c23 -30 22 -65 -4 -70 -44 -9 -121
87 -87 108 19 12 67 -8 91 -38z"/>
<path d="M1384 4309 c-39 -11 -47 -30 -34 -79 20 -73 99 -154 131 -134 18 11
8 -9 -22 -44 -53 -60 -69 -106 -69 -205 0 -180 82 -351 182 -378 83 -22 320
39 516 132 204 96 302 180 302 259 0 97 -189 281 -349 341 -96 36 -277 24
-396 -25 -34 -15 -35 -15 -24 5 25 47 -6 84 -96 112 -71 22 -105 26 -141 16z
m619 -150 c92 -48 87 -128 -6 -97 -40 13 -77 46 -77 68 0 36 41 51 83 29z m87
-187 c32 -26 19 -43 -22 -31 -38 10 -53 23 -44 38 11 17 41 13 66 -7z"/>
<path d="M2765 3730 c-358 -94 -544 -180 -724 -333 -61 -52 -151 -165 -151
-189 0 -10 -11 -43 -25 -74 -42 -95 -85 -279 -97 -418 -17 -196 5 -395 68
-608 4 -13 -11 -25 -60 -49 -240 -119 -305 -356 -141 -508 52 -48 113 -83 196
-115 74 -28 292 -76 343 -76 27 0 39 -7 57 -31 25 -36 73 -59 121 -59 29 0 36
-6 53 -42 11 -23 35 -57 53 -76 32 -35 32 -35 53 -16 18 17 20 28 17 92 -2 47
0 71 7 68 5 -2 34 -14 63 -26 l52 -23 0 -101 c-1 -124 -25 -197 -79 -233 -75
-51 -211 -19 -337 78 -28 21 -60 39 -72 39 -46 0 -69 -89 -37 -149 36 -70 188
-171 310 -206 33 -9 68 -21 77 -26 24 -12 185 -11 193 1 3 6 14 10 23 10 9 0
44 13 77 28 65 31 136 96 187 170 43 63 116 227 124 279 6 39 9 43 35 43 54 0
278 50 362 81 182 67 439 219 549 324 95 91 227 96 386 16 95 -48 197 -133
275 -229 32 -39 62 -72 67 -72 24 0 62 48 67 85 18 138 -210 425 -423 533 -98
49 -162 58 -290 40 -60 -8 -110 -14 -111 -14 -1 1 3 34 9 73 l11 72 51 27 c79
42 227 157 288 223 31 32 73 68 95 79 21 11 58 41 82 67 42 45 43 48 39 105
-3 54 -1 61 28 92 60 63 71 111 29 130 -20 9 -33 7 -74 -14 l-49 -24 5 31 c6
40 -24 70 -62 61 -34 -9 -99 -76 -126 -132 l-22 -45 -26 53 c-21 42 -32 54
-54 56 -59 7 -73 -110 -27 -230 11 -29 19 -52 17 -53 -13 -9 -190 -76 -193
-73 -2 2 -13 53 -24 114 -63 332 -228 651 -455 880 -162 164 -316 259 -489
304 -109 27 -189 25 -321 -10z m290 -164 c259 -68 511 -334 670 -707 47 -108
51 -136 25 -144 -37 -12 -90 -65 -90 -91 0 -35 42 -58 106 -58 30 -1 54 -2 54
-4 0 -2 8 -38 17 -80 12 -58 17 -126 16 -272 0 -178 -2 -204 -26 -293 -36
-135 -80 -220 -152 -292 -73 -74 -128 -95 -249 -95 -147 0 -297 59 -442 174
-223 176 -375 441 -443 771 -28 135 -55 395 -41 395 3 0 41 -21 85 -46 44 -25
179 -97 300 -160 212 -109 221 -115 244 -159 31 -59 103 -125 136 -125 40 0
65 18 82 57 13 33 13 43 -2 108 l-17 73 42 173 c51 210 54 253 21 280 -29 24
-63 24 -83 2 -17 -19 -65 -163 -94 -275 -12 -50 -21 -68 -33 -68 -9 0 -26 -7
-38 -15 -20 -14 -31 -9 -195 98 -175 115 -300 191 -395 242 l-53 28 6 41 c37
243 136 394 287 442 55 17 199 17 262 0z m-731 -692 c46 -18 -4 -73 -108 -119
-115 -51 -296 -85 -296 -56 0 18 73 73 151 111 104 53 212 80 253 64z m-104
-274 c12 -7 12 -12 -4 -29 -26 -28 -122 -63 -165 -59 -31 3 -36 7 -39 30 -3
28 13 42 67 59 37 10 123 10 141 -1z m-125 -959 c45 -54 62 -82 49 -78 -10 3
-39 11 -62 18 -57 16 -102 58 -102 95 0 29 29 70 40 57 3 -5 37 -46 75 -92z"/>
<path d="M2955 3446 c-13 -31 -13 -41 4 -97 21 -66 71 -129 103 -129 29 0 51
44 43 87 -25 139 -116 222 -150 139z"/>
<path d="M2753 3443 c-27 -40 -22 -121 11 -176 34 -60 82 -89 138 -85 39 3 43
6 46 31 5 41 -20 107 -67 176 -59 87 -96 102 -128 54z"/>
<path d="M2749 2429 c-48 -28 -73 -71 -65 -113 15 -81 71 -99 143 -47 73 53
103 129 65 164 -26 24 -99 21 -143 -4z"/>
<path d="M3457 1932 c-20 -22 -22 -96 -5 -155 13 -45 76 -117 101 -117 26 0
47 29 47 65 0 54 -38 161 -69 194 -33 36 -51 39 -74 13z"/>
<path d="M235 3060 c-28 -11 -72 -60 -84 -93 -31 -80 2 -236 67 -327 l39 -54
-56 -36 c-67 -43 -131 -114 -163 -178 -18 -37 -23 -64 -23 -127 0 -74 3 -85
33 -132 108 -168 309 -159 487 21 58 59 125 166 125 200 0 28 21 28 156 2 311
-60 555 -92 585 -76 30 17 43 76 30 144 -16 87 -42 123 -104 141 -58 17 -283
48 -482 65 -221 19 -215 17 -215 48 0 15 -7 58 -15 95 -41 192 -162 318 -305
316 -30 0 -64 -4 -75 -9z m157 -221 c26 -14 57 -84 58 -128 0 -40 -24 -71 -55
-71 -71 0 -146 148 -99 194 18 18 66 21 96 5z m41 -442 c4 -7 5 -28 3 -47 -14
-92 -129 -160 -194 -114 -48 33 -10 111 78 157 55 28 95 30 113 4z"/>
<path d="M4660 2603 c-31 -27 -40 -43 -38 -62 6 -55 110 -26 147 41 13 22 13
29 2 42 -23 28 -67 19 -111 -21z"/>
<path d="M5053 1578 c-39 -42 -84 -114 -158 -254 -58 -108 -59 -111 -45 -145
17 -40 97 -129 116 -129 20 0 58 58 86 130 64 164 89 430 40 430 -5 0 -22 -15
-39 -32z"/>
<path d="M1955 1196 c-35 -53 -75 -258 -75 -386 0 -51 21 -62 56 -29 27 25
116 170 160 261 27 56 28 58 11 92 -17 38 -83 86 -117 86 -11 0 -27 -11 -35
-24z"/>
</g>
</svg>
